<svg width="525" height="359" viewBox="0 0 525 359" fill="none" xmlns="http://www.w3.org/2000/svg">
<g clip-path="url(#clip0_1314_160)">
<path d="M32.41 126.63H491.67C509.57 126.63 524.08 141.14 524.08 159.04C524.08 176.94 509.57 191.45 491.67 191.45H32.41C14.51 191.45 0 176.94 0 159.04C0 141.14 14.51 126.63 32.41 126.63Z" fill="#7C5CFF"/>
<path d="M424.62 93.9502H519.97C522.25 93.9502 524.09 95.7902 524.09 98.0602C524.09 100.33 522.25 102.17 519.97 102.17H424.62C422.34 102.17 420.5 100.33 420.5 98.0602C420.5 95.7902 422.34 93.9502 424.62 93.9502Z" fill="#DFDFE0"/>
<path d="M4.12 0H99.47C101.75 0 103.59 1.84 103.59 4.11C103.59 6.38 101.75 8.22 99.47 8.22H4.12C1.84 8.23 0 6.39 0 4.11C0 1.84 1.84 0 4.12 0Z" fill="#DFDFE0"/>
<path d="M4.12 35.9102H283.99C286.27 35.9102 288.11 37.7502 288.11 40.0302C288.11 42.3002 286.27 44.1402 283.99 44.1402H4.12C1.84 44.1402 0 42.3002 0 40.0302C0 37.7602 1.84 35.9102 4.12 35.9102Z" fill="#DFDFE0"/>
<path d="M233.77 260.88C233.77 282.44 251.25 299.92 272.81 299.92C279.34 299.92 285.49 298.32 290.89 295.49L328.72 355.49C331.04 359.16 335.99 360.08 339.47 357.48C342.72 355.05 343.42 350.47 341.05 347.17L299.44 289.42C307.07 282.29 311.85 272.14 311.85 260.88C311.85 239.32 294.37 221.84 272.81 221.84C251.25 221.84 233.77 239.32 233.77 260.88ZM239.13 260.88C239.13 242.28 254.21 227.19 272.82 227.19C291.43 227.19 306.51 242.27 306.51 260.88C306.51 279.48 291.43 294.57 272.82 294.57C254.22 294.57 239.13 279.49 239.13 260.88Z" fill="#484662"/>
</g>
<defs>
<clipPath id="clip0_1314_160">
<rect width="525" height="359" fill="white"/>
</clipPath>
</defs>
</svg>
